<svg width="16" height="12" viewBox="0 0 16 12" fill="none" xmlns="http://www.w3.org/2000/svg">
<g filter="url(#filter0_b_401_2435)">
<path fill-rule="evenodd" clip-rule="evenodd" d="M14.5866 1.3328C15.2962 2.08024 15.274 3.26538 14.5368 3.97988L7.68196 10.624C6.71195 11.5642 5.12425 11.3391 4.4406 10.1644L1.63785 5.34875C1.11831 4.45608 1.41179 3.30939 2.29335 2.78755C3.17491 2.26571 4.31073 2.56632 4.83027 3.45899L6.59078 6.4839L11.9668 1.27317C12.704 0.558669 13.8769 0.585367 14.5866 1.3328Z" fill="url(#paint0_linear_401_2435)"/>
<path fill-rule="evenodd" clip-rule="evenodd" d="M14.5866 1.3328C15.2962 2.08024 15.274 3.26538 14.5368 3.97988L7.68196 10.624C6.71195 11.5642 5.12425 11.3391 4.4406 10.1644L1.63785 5.34875C1.11831 4.45608 1.41179 3.30939 2.29335 2.78755C3.17491 2.26571 4.31073 2.56632 4.83027 3.45899L6.59078 6.4839L11.9668 1.27317C12.704 0.558669 13.8769 0.585367 14.5866 1.3328Z" stroke="#7F7F7F" stroke-linecap="round"/>
</g>
<defs>
<filter id="filter0_b_401_2435" x="-12.1172" y="-12.7461" width="40.7188" height="37.4551" filterUnits="userSpaceOnUse" color-interpolation-filters="sRGB">
<feFlood flood-opacity="0" result="BackgroundImageFix"/>
<feGaussianBlur in="BackgroundImage" stdDeviation="6.5"/>
<feComposite in2="SourceAlpha" operator="in" result="effect1_backgroundBlur_401_2435"/>
<feBlend mode="normal" in="SourceGraphic" in2="effect1_backgroundBlur_401_2435" result="shape"/>
</filter>
<linearGradient id="paint0_linear_401_2435" x1="-14.1324" y1="35.3897" x2="16.8339" y2="-2.13781" gradientUnits="userSpaceOnUse">
<stop stop-color="#7F7F7F"/>
<stop offset="1" stop-color="white" stop-opacity="0"/>
</linearGradient>
</defs>
</svg>
